HIERARCHY
ROOT RootJoint
{
    OFFSET   0.000000   0.000000   0.000000
    CHANNELS 6 Xposition Yposition Zposition Xrotation Yrotation Zrotation
    JOINT pelvis_lowerback
    {
        OFFSET   0.000000   0.093605   0.000000
        CHANNELS 3 Xrotation Yrotation Zrotation
        JOINT lowerback_torso
        {
            OFFSET   0.000000   0.100000   0.000000
            CHANNELS 3 Xrotation Yrotation Zrotation
            JOINT torso_head
            {
                OFFSET   0.000000   0.282350   0.000000
                CHANNELS 3 Xrotation Yrotation Zrotation
                End Site
                {
                    OFFSET   0.000000   0.192650   0.000000
                }
            }
            JOINT rTorso_Clavicle
            {
                OFFSET  -0.001000   0.157500   0.000000
                CHANNELS 3 Xrotation Yrotation Zrotation
                JOINT rShoulder
                {
                    OFFSET  -0.117647   0.000000   0.000000
                    CHANNELS 3 Xrotation Yrotation Zrotation
                    JOINT rElbow
                    {
                        OFFSET  -0.245000   0.000000   0.000000
                        CHANNELS 3 Xrotation Yrotation Zrotation
                        JOINT rWrist
                        {
                            OFFSET  -0.240000   0.000000   0.000000
                            CHANNELS 3 Xrotation Yrotation Zrotation
                            End Site
                            {
                                OFFSET  -0.116353  -0.002500   0.000000
                            }
                        }
                    }
                }
            }
            JOINT lTorso_Clavicle
            {
                OFFSET   0.001000   0.157500   0.000000
                CHANNELS 3 Xrotation Yrotation Zrotation
                JOINT lShoulder
                {
                    OFFSET   0.117647   0.000000   0.000000
                    CHANNELS 3 Xrotation Yrotation Zrotation
                    JOINT lElbow
                    {
                        OFFSET   0.245000   0.000000   0.000000
                        CHANNELS 3 Xrotation Yrotation Zrotation
                        JOINT lWrist
                        {
                            OFFSET   0.240000   0.000000   0.000000
                            CHANNELS 3 Xrotation Yrotation Zrotation
                            End Site
                            {
                                OFFSET   0.116353  -0.002500   0.000000
                            }
                        }
                    }
                }
            }
        }
    }
    JOINT rHip
    {
        OFFSET  -0.100000  -0.051395   0.000000
        CHANNELS 3 Xrotation Yrotation Zrotation
        JOINT rKnee
        {
            OFFSET   0.000000  -0.410000   0.000000
            CHANNELS 3 Xrotation Yrotation Zrotation
            JOINT rAnkle
            {
                OFFSET   0.000000  -0.390000   0.000000
                CHANNELS 3 Xrotation Yrotation Zrotation
                JOINT rToeJoint
                {
                    OFFSET   0.000000  -0.050000   0.130000
                    CHANNELS 3 Xrotation Yrotation Zrotation
                    End Site
                    {
                        OFFSET  -0.010000   0.002000   0.060000
                    }
                }
            }
        }
    }
    JOINT lHip
    {
        OFFSET   0.100000  -0.051395   0.000000
        CHANNELS 3 Xrotation Yrotation Zrotation
        JOINT lKnee
        {
            OFFSET   0.000000  -0.410000   0.000000
            CHANNELS 3 Xrotation Yrotation Zrotation
            JOINT lAnkle
            {
                OFFSET   0.000000  -0.390000   0.000000
                CHANNELS 3 Xrotation Yrotation Zrotation
                JOINT lToeJoint
                {
                    OFFSET   0.000000  -0.050000   0.130000
                    CHANNELS 3 Xrotation Yrotation Zrotation
                    End Site
                    {
                        OFFSET   0.010000   0.002000   0.060000
                    }
                }
            }
        }
    }
}
MOTION
Frames: 8
Frame Time:   0.008333
 -2.377610   0.850149   4.153068   4.998730  -2.015554  -2.210428  13.381983   8.094630  -2.554603   6.192111   2.049296   3.346830  -9.168232  -0.820625  -2.816942  -8.264258   2.296102  -1.938426 -17.606259   3.669790  43.757408 179.850051  80.969369 -179.847545  -3.509526  -1.579771  -3.012562   5.268196   4.991835   2.176883  27.284186   5.638939 -40.142787  -0.021935 -73.240109  -0.027331  -1.100414  -4.499604   2.190840  15.759154  -3.689090  -6.839987  17.616755  -0.017216   0.006450  -5.678054  -2.185928   3.845322 -48.313285  -0.021103  -0.012664 -35.757699   1.966658   3.441456  86.440333  -0.008777  -0.001195 -22.263124   2.909583   2.956733  -5.453358  -0.002085   0.000765
 -2.374681   0.853183   4.167262   4.706925  -1.695761  -1.757672  13.318622   8.710485  -2.856187   6.113933   2.601002   2.937631  -8.912854  -1.501060  -2.590458  -8.455637   2.740918  -2.434208 -17.450394   4.391277  43.576953 179.771809  79.360030 -179.772977  -3.562556  -0.754106  -3.639004   5.914356   5.656830   2.746414  28.619659   6.131997 -40.188835  -0.016470 -73.815243  -0.025635  -1.247340  -4.009907   2.536760  16.923444  -3.734226  -7.467015  17.176215  -0.015589   0.003599  -2.910078  -1.941812   4.285669 -47.651258  -0.018352  -0.007935 -36.711187   1.710379   2.777468  83.562058  -0.002019   0.002852 -23.482549   2.788587   3.037041  -5.655067  -0.001788   0.000727
 -2.371602   0.856543   4.181796   4.521036  -1.185602  -1.443314  13.142946   9.199574  -3.038674   6.030693   3.038027   2.622815  -8.671204  -2.142150  -2.359238  -8.471113   3.063131  -2.867139 -17.142647   5.031627  43.432534 179.736411  77.860057 -179.739078  -3.633919  -0.054908  -3.684931   6.520447   6.280897   3.253789  29.880372   6.547966 -40.286132  -0.010278 -74.402074  -0.022828  -1.376688  -3.774450   2.681198  17.881055  -3.730436  -7.905361  16.914560  -0.013675   0.001540   0.256750  -1.597405   4.643938 -47.121637  -0.016018  -0.003460 -37.338524   1.463035   2.061853  80.235752  -0.002468   0.007351 -24.636395   2.666278   3.108782  -5.799493  -0.001767   0.000550
 -2.368459   0.859821   4.196437   4.418614  -0.544072  -1.210419  12.924672   9.591628  -3.179150   5.928732   3.380197   2.369653  -8.449171  -2.739941  -2.137464  -8.426453   3.303848  -3.248629 -16.795922   5.598332  43.307315 179.728292  76.461889 -179.731706  -3.718527   0.529807  -3.553184   7.079473   6.861204   3.733990  31.057278   6.921357 -40.391022  -0.004248 -74.968339  -0.019288  -1.495897  -3.672182   2.755028  18.695902  -3.696392  -8.211809  16.728669  -0.011836   0.000083   3.639062  -1.192612   4.935474 -46.697861  -0.013881   0.000121 -37.798902   1.283382   1.315993  76.969376  -0.009001   0.009764 -25.714954   2.547483   3.171426  -5.908581  -0.001809   0.000300
 -2.365305   0.862786   4.211052   4.384793   0.176257  -1.020869  12.695482   9.911849  -3.316230   5.816743   3.650486   2.145973  -8.243421  -3.297176  -1.928819  -8.361525   3.493394  -3.598684 -16.447826   6.107962  43.189447 179.734191  75.157025 -179.738227  -3.806982   1.046913  -3.392773   7.592134   7.395607   4.197913  32.150829   7.261893 -40.489222   0.001580 -75.507277  -0.015062  -1.607690  -3.640570   2.818763  19.399567  -3.639571  -8.429309  16.595946  -0.010113  -0.000846   6.994504  -0.770252   5.153280 -45.899489  -0.012831   0.006370 -38.157083   1.173848   0.547116  73.907643  -0.017886   0.009831 -26.721633   2.433335   3.225912  -6.007452  -0.001879   0.000021
 -2.362166   0.865382   4.225602   4.409224   0.942896  -0.870953  12.468814  10.177473  -3.452338   5.702849   3.866132   1.938497  -8.051492  -3.816535  -1.733949  -8.290626   3.648162  -3.923937 -16.111098   6.570933  43.074589 179.747095  73.939083 -179.751690  -3.894880   1.523134  -3.241276   8.060951   7.884973   4.636667  33.165029   7.571210 -40.581942   0.007348 -76.016875  -0.010183  -1.713074  -3.649366   2.886290  20.017238  -3.570176  -8.569005  16.493051  -0.008580  -0.001422  10.195791  -0.344816   5.323079 -44.402115  -0.012758   0.017628 -38.437936   1.115132  -0.223978  71.073119  -0.026721   0.008037 -27.660882   2.324786   3.273650  -6.102483  -0.001951  -0.000270
 -2.359057   0.867572   4.240058   4.487364   1.727665  -0.753846  12.252294  10.402069  -3.593934   5.591453   4.040562   1.738145  -7.871480  -4.300566  -1.551978  -8.219672   3.778622  -4.228659 -15.790617   6.994835  42.962245 179.763160  72.801934 -179.768233  -3.980812   1.970458  -3.105793   8.489838   8.332338   5.045890  34.105705   7.850438 -40.671661   0.013102 -76.497814  -0.004761  -1.812699  -3.686625   2.954305  20.556151  -3.492407  -8.646371  16.402489  -0.007279  -0.001804  13.235580   0.074845   5.450913 -42.352570  -0.012097   0.031641 -38.657456   1.093591  -0.985319  68.456599  -0.034192   0.005140 -28.537175   2.222300   3.315788  -6.194702  -0.002001  -0.000551
 -2.355782   0.869680   4.254692   4.269183   2.370230  -0.835007  12.078464  10.582894  -3.481673   5.710997   4.331968   1.563996  -7.585188  -4.799289  -1.369125  -7.961409   3.811583  -4.428010 -14.342930   7.440661  42.831253 179.815993  72.907787 -179.820326  -3.870973   3.604271  -3.456945   8.798210   8.750131   5.097812  34.623545   7.933033 -40.830539   0.015544 -76.833540  -0.002337  -1.882265  -3.578787   3.240330  20.079891  -3.360728  -8.633867  19.830287   0.006639   0.013243  14.382484  -0.034160   5.443571 -38.808802   0.005780   0.034164 -38.148514   1.076852  -1.470289  65.870072  -0.040215   0.001091 -30.083827   2.002167   3.236280  -6.004934  -0.000542   0.000248
